<svg viewBox="0 0 64 64" xmlns="http://www.w3.org/2000/svg">
  <defs>
    <radialGradient id="grad1" cx="50%" cy="50%" r="50%">
      <stop offset="0%" stop-color="#4f87ff"/>
      <stop offset="100%" stop-color="#1a2a6c"/>
    </radialGradient>
  </defs>
  <circle cx="32" cy="32" r="30" fill="url(#grad1)" stroke="#fff" stroke-width="2"/>
  <g stroke="#fff" stroke-width="2" stroke-linecap="round">
    <line x1="32" y1="32" x2="32" y2="12"/>
    <line x1="32" y1="32" x2="32" y2="52"/>
    <line x1="32" y1="32" x2="12" y2="32"/>
    <line x1="32" y1="32" x2="52" y2="32"/>
    <line x1="32" y1="32" x2="18" y2="18"/>
    <line x1="32" y1="32" x2="46" y2="18"/>
    <line x1="32" y1="32" x2="18" y2="46"/>
    <line x1="32" y1="32" x2="46" y2="46"/>
  </g>
  <g fill="#fff">
    <circle cx="32" cy="32" r="4"/>
    <circle cx="32" cy="12" r="3"/>
    <circle cx="32" cy="52" r="3"/>
    <circle cx="12" cy="32" r="3"/>
    <circle cx="52" cy="32" r="3"/>
    <circle cx="18" cy="18" r="3"/>
    <circle cx="46" cy="18" r="3"/>
    <circle cx="18" cy="46" r="3"/>
    <circle cx="46" cy="46" r="3"/>
  </g>
</svg>